# xmcd CD database file
#
# Track frame offsets:
#	182
#	11220
#	23315
#	30217
#	38975
#	50872
#	59510
#	69345
#	80507
#	90925
#	101585
#	112392
#	122875
#	133370
#
# Disc length: 1892 seconds
#
# Revision: 2
# Processed by: cddbd v1.5.1PL0 Copyright (c) Steve Scherf et al.
# Submitted via: CDex 1.51
#
DISCID=bd07620e
DTITLE=Waylon Jennings - Sally was a good old girl
DYEAR=1988
DGENRE=Country
TTITLE0=Sally was a good old girl
TTITLE1=Don't think twice
TTITLE2=It's so easy
TTITLE3=Love's gonna live here
TTITLE4=Crying
TTITLE5=Abilene
TTITLE6=When sin stops
TTITLE7=Big mamou
TTITLE8=White lightning
TTITLE9=Burning memories
TTITLE10=Dream baby
TTITLE11=Money
TTITLE12=Lorena
TTITLE13=Jolie Blond
EXTD=YEAR: 1988
EXTT0=
EXTT1=
EXTT2=
EXTT3=
EXTT4=
EXTT5=
EXTT6=
EXTT7=
EXTT8=
EXTT9=
EXTT10=
EXTT11=
EXTT12=
EXTT13=
PLAYORDER=
